<svg xmlns="http://www.w3.org/2000/svg" viewBox="0 0 800 350" font-family="monospace">
  <rect width="800" height="350" fill="#1e1e2e"/>

  <!-- Title -->
  <text x="400" y="28" fill="#cdd6f4" font-size="16" font-weight="bold" text-anchor="middle">Product Quantization: "Lego-fy" Your Vectors</text>

  <!-- Original vector -->
  <text x="60" y="55" fill="#a6adc8" font-size="12">Original vector (1536 dims):</text>
  <rect x="60" y="65" width="680" height="25" fill="#45475a" rx="4"/>
  <text x="400" y="82" fill="#cdd6f4" font-size="11" text-anchor="middle">[0.23, -0.89, 0.45, -0.12, 0.67, -0.34, 0.91, -0.56, 0.78, -0.23, 0.44, -0.67, ...]</text>

  <!-- Arrow: Split -->
  <text x="400" y="110" fill="#f9e2af" font-size="13" text-anchor="middle">Step 1: Split into slices</text>

  <!-- Slices -->
  <rect x="60" y="120" width="160" height="25" fill="#f38ba8" rx="4" opacity="0.3"/>
  <text x="140" y="137" fill="#f38ba8" font-size="10" text-anchor="middle">slice 1 (dims 1-192)</text>
  <rect x="230" y="120" width="160" height="25" fill="#89b4fa" rx="4" opacity="0.3"/>
  <text x="310" y="137" fill="#89b4fa" font-size="10" text-anchor="middle">slice 2 (dims 193-384)</text>
  <rect x="400" y="120" width="100" height="25" fill="#a6e3a1" rx="4" opacity="0.3"/>
  <text x="450" y="137" fill="#a6e3a1" font-size="10" text-anchor="middle">...</text>
  <rect x="510" y="120" width="160" height="25" fill="#f9e2af" rx="4" opacity="0.3"/>
  <text x="590" y="137" fill="#f9e2af" font-size="10" text-anchor="middle">slice 8 (dims 1345-1536)</text>

  <!-- Arrow: Match to codebook -->
  <text x="400" y="170" fill="#f9e2af" font-size="13" text-anchor="middle">Step 2: Match each slice to nearest "Lego brick" from codebook</text>

  <!-- Codebook visualization -->
  <rect x="60" y="185" width="680" height="65" fill="#313244" rx="6" stroke="#585b70" stroke-width="1"/>
  <text x="400" y="200" fill="#585b70" font-size="10" text-anchor="middle">Codebook: 256 pre-trained "Lego bricks" per slice</text>

  <!-- Brick matches -->
  <rect x="80" y="210" width="70" height="28" fill="#f38ba8" rx="4" opacity="0.6"/>
  <text x="115" y="228" fill="#cdd6f4" font-size="11" text-anchor="middle">#42</text>
  <rect x="170" y="210" width="20" height="28" fill="none"/>
  <text x="180" y="228" fill="#585b70" font-size="14">→</text>
  <rect x="210" y="210" width="70" height="28" fill="#89b4fa" rx="4" opacity="0.6"/>
  <text x="245" y="228" fill="#cdd6f4" font-size="11" text-anchor="middle">#7</text>
  <rect x="300" y="210" width="20" height="28" fill="none"/>
  <text x="310" y="228" fill="#585b70" font-size="14">→</text>
  <rect x="340" y="210" width="70" height="28" fill="#a6e3a1" rx="4" opacity="0.6"/>
  <text x="375" y="228" fill="#cdd6f4" font-size="11" text-anchor="middle">...</text>
  <rect x="430" y="210" width="20" height="28" fill="none"/>
  <text x="440" y="228" fill="#585b70" font-size="14">→</text>
  <rect x="470" y="210" width="70" height="28" fill="#f9e2af" rx="4" opacity="0.6"/>
  <text x="505" y="228" fill="#cdd6f4" font-size="11" text-anchor="middle">#198</text>

  <!-- Arrow: Result -->
  <text x="400" y="270" fill="#f9e2af" font-size="13" text-anchor="middle">Step 3: Store only the brick IDs</text>

  <!-- Compressed result -->
  <rect x="200" y="280" width="400" height="28" fill="#45475a" rx="4" stroke="#a6e3a1" stroke-width="1"/>
  <text x="400" y="299" fill="#a6e3a1" font-size="13" text-anchor="middle" font-weight="bold">[42, 7, 155, 89, 201, 12, 67, 198]  =  8 bytes!</text>

  <!-- Bottom insight -->
  <rect x="100" y="320" width="600" height="25" fill="#313244" rx="4"/>
  <text x="400" y="337" fill="#cdd6f4" font-size="12" text-anchor="middle">1536 dims × 4 bytes = 6,144 bytes  →  8 brick IDs × 1 byte = 8 bytes  =  768x compression</text>
</svg>
