<svg xmlns="http://www.w3.org/2000/svg" viewBox="0 0 500 580" font-family="monospace">
  <rect width="500" height="580" fill="#1e1e2e"/>

  <!-- Title -->
  <text x="250" y="28" fill="#cdd6f4" font-size="15" font-weight="bold" text-anchor="middle">Product Quantization: "Lego-fy" Your Vectors</text>

  <!-- Original vector -->
  <text x="30" y="58" fill="#a6adc8" font-size="11">Original vector (1536 dims):</text>
  <rect x="30" y="68" width="440" height="25" fill="#45475a" rx="4"/>
  <text x="250" y="85" fill="#cdd6f4" font-size="9" text-anchor="middle">[0.23, -0.89, 0.45, -0.12, 0.67, -0.34, 0.91, -0.56, 0.78, -0.23, ...]</text>

  <!-- Arrow: Split -->
  <text x="250" y="120" fill="#f9e2af" font-size="18" text-anchor="middle">↓</text>
  <text x="250" y="140" fill="#f9e2af" font-size="12" text-anchor="middle">Step 1: Split into slices</text>

  <!-- Slices — 2 rows -->
  <rect x="30" y="155" width="210" height="25" fill="#f38ba8" rx="4" opacity="0.3"/>
  <text x="135" y="172" fill="#f38ba8" font-size="10" text-anchor="middle">slice 1 (dims 1-192)</text>
  <rect x="250" y="155" width="220" height="25" fill="#89b4fa" rx="4" opacity="0.3"/>
  <text x="360" y="172" fill="#89b4fa" font-size="10" text-anchor="middle">slice 2 (dims 193-384)</text>
  <rect x="30" y="188" width="100" height="25" fill="#a6e3a1" rx="4" opacity="0.3"/>
  <text x="80" y="205" fill="#a6e3a1" font-size="10" text-anchor="middle">...</text>
  <rect x="140" y="188" width="220" height="25" fill="#f9e2af" rx="4" opacity="0.3"/>
  <text x="250" y="205" fill="#f9e2af" font-size="10" text-anchor="middle">slice 8 (dims 1345-1536)</text>

  <!-- Arrow: Match to codebook -->
  <text x="250" y="240" fill="#f9e2af" font-size="18" text-anchor="middle">↓</text>
  <text x="250" y="260" fill="#f9e2af" font-size="12" text-anchor="middle">Step 2: Match each slice to nearest "Lego brick"</text>
  <text x="250" y="278" fill="#f9e2af" font-size="11" text-anchor="middle">from codebook</text>

  <!-- Codebook visualization -->
  <rect x="30" y="290" width="440" height="100" fill="#313244" rx="6" stroke="#585b70" stroke-width="1"/>
  <text x="250" y="310" fill="#585b70" font-size="10" text-anchor="middle">Codebook: 256 pre-trained "Lego bricks" per slice</text>

  <!-- Brick matches — 2 rows -->
  <rect x="50" y="322" width="65" height="25" fill="#f38ba8" rx="4" opacity="0.6"/>
  <text x="82" y="339" fill="#cdd6f4" font-size="11" text-anchor="middle">#42</text>
  <text x="127" y="339" fill="#585b70" font-size="14">→</text>
  <rect x="140" y="322" width="65" height="25" fill="#89b4fa" rx="4" opacity="0.6"/>
  <text x="172" y="339" fill="#cdd6f4" font-size="11" text-anchor="middle">#7</text>
  <text x="217" y="339" fill="#585b70" font-size="14">→</text>
  <rect x="230" y="322" width="65" height="25" fill="#a6e3a1" rx="4" opacity="0.6"/>
  <text x="262" y="339" fill="#cdd6f4" font-size="11" text-anchor="middle">...</text>
  <text x="307" y="339" fill="#585b70" font-size="14">→</text>
  <rect x="320" y="322" width="65" height="25" fill="#f9e2af" rx="4" opacity="0.6"/>
  <text x="352" y="339" fill="#cdd6f4" font-size="11" text-anchor="middle">#198</text>

  <text x="250" y="375" fill="#a6adc8" font-size="9" text-anchor="middle">Each slice's best-matching brick ID is stored</text>

  <!-- Arrow: Result -->
  <text x="250" y="420" fill="#f9e2af" font-size="18" text-anchor="middle">↓</text>
  <text x="250" y="440" fill="#f9e2af" font-size="12" text-anchor="middle">Step 3: Store only the brick IDs</text>

  <!-- Compressed result -->
  <rect x="50" y="455" width="400" height="30" fill="#45475a" rx="4" stroke="#a6e3a1" stroke-width="1"/>
  <text x="250" y="475" fill="#a6e3a1" font-size="13" text-anchor="middle" font-weight="bold">[42, 7, 155, 89, 201, 12, 67, 198]  =  8 bytes!</text>

  <!-- Bottom insight -->
  <rect x="30" y="510" width="440" height="50" fill="#313244" rx="4"/>
  <text x="250" y="530" fill="#cdd6f4" font-size="11" text-anchor="middle">1536 dims × 4 bytes = 6,144 bytes</text>
  <text x="250" y="548" fill="#cdd6f4" font-size="11" text-anchor="middle">→  8 brick IDs × 1 byte = 8 bytes  =  768x compression</text>
</svg>
