<svg xmlns="http://www.w3.org/2000/svg" viewBox="0 0 520 640" font-family="monospace">
  <rect width="520" height="640" fill="#1e1e2e"/>

  <!-- Title -->
  <text x="260" y="25" fill="#cdd6f4" font-size="14" font-weight="bold" text-anchor="middle">Six Degrees of Separation → Why Graph Search Scales</text>

  <!-- Section 1: Social network analogy -->
  <text x="260" y="55" fill="#f9e2af" font-size="13" text-anchor="middle" font-weight="bold">7 billion people, ~6 hops apart</text>

  <!-- People nodes -->
  <circle cx="120" cy="120" r="14" fill="#89b4fa"/>
  <text x="120" y="124" fill="#1e1e2e" font-size="9" text-anchor="middle">You</text>
  <circle cx="190" cy="90" r="10" fill="#585b70"/>
  <circle cx="180" cy="150" r="10" fill="#585b70"/>
  <circle cx="250" cy="110" r="10" fill="#585b70"/>
  <circle cx="260" cy="160" r="10" fill="#585b70"/>
  <circle cx="320" cy="130" r="14" fill="#a6e3a1"/>
  <text x="320" y="134" fill="#1e1e2e" font-size="8" text-anchor="middle">Anyone</text>

  <!-- Path edges -->
  <line x1="134" y1="118" x2="180" y2="94" stroke="#f9e2af" stroke-width="2"/>
  <line x1="190" y1="90" x2="245" y2="108" stroke="#f9e2af" stroke-width="2"/>
  <line x1="250" y1="115" x2="260" y2="155" stroke="#f9e2af" stroke-width="2"/>
  <line x1="265" y1="160" x2="306" y2="135" stroke="#f9e2af" stroke-width="2"/>
  <!-- Background edges -->
  <line x1="134" y1="122" x2="170" y2="148" stroke="#585b70" stroke-width="1" opacity="0.3"/>
  <line x1="190" y1="95" x2="250" y2="155" stroke="#585b70" stroke-width="1" opacity="0.3"/>
  <line x1="180" y1="150" x2="250" y2="115" stroke="#585b70" stroke-width="1" opacity="0.3"/>

  <!-- Hop count -->
  <text x="160" y="78" fill="#f9e2af" font-size="9">1</text>
  <text x="220" y="95" fill="#f9e2af" font-size="9">2</text>
  <text x="262" y="140" fill="#f9e2af" font-size="9">3</text>
  <text x="288" y="155" fill="#f9e2af" font-size="9">4</text>

  <text x="260" y="195" fill="#a6adc8" font-size="11" text-anchor="middle">~4-6 hops to reach anyone</text>

  <!-- Divider -->
  <line x1="60" y1="210" x2="460" y2="210" stroke="#585b70" stroke-width="1" stroke-dasharray="4,3"/>

  <!-- Section 2: Vector graph analogy -->
  <text x="260" y="235" fill="#4EC9B0" font-size="13" text-anchor="middle" font-weight="bold">1 billion vectors, ~20-30 hops apart</text>

  <!-- Vector nodes -->
  <circle cx="80" cy="290" r="8" fill="#4EC9B0" opacity="0.6"/>
  <circle cx="130" cy="270" r="8" fill="#4EC9B0" opacity="0.6"/>
  <circle cx="170" cy="295" r="8" fill="#4EC9B0" opacity="0.6"/>
  <circle cx="220" cy="275" r="8" fill="#4EC9B0" opacity="0.6"/>
  <circle cx="260" cy="300" r="8" fill="#4EC9B0" opacity="0.6"/>
  <circle cx="310" cy="278" r="8" fill="#4EC9B0" opacity="0.6"/>
  <circle cx="360" cy="295" r="8" fill="#4EC9B0" opacity="0.6"/>
  <circle cx="120" cy="320" r="8" fill="#4EC9B0" opacity="0.6"/>
  <circle cx="180" cy="335" r="8" fill="#4EC9B0" opacity="0.6"/>
  <circle cx="240" cy="325" r="8" fill="#4EC9B0" opacity="0.6"/>
  <circle cx="300" cy="340" r="8" fill="#4EC9B0" opacity="0.6"/>
  <circle cx="350" cy="330" r="8" fill="#4EC9B0" opacity="0.6"/>

  <!-- Query and target -->
  <circle cx="80" cy="290" r="10" fill="#89b4fa" stroke="#89b4fa" stroke-width="2"/>
  <text x="62" y="286" fill="#89b4fa" font-size="9">Q</text>
  <circle cx="360" cy="295" r="10" fill="#a6e3a1" stroke="#a6e3a1" stroke-width="2"/>
  <text x="378" y="292" fill="#a6e3a1" font-size="9">✓</text>

  <!-- Path through graph -->
  <line x1="88" y1="288" x2="124" y2="273" stroke="#f9e2af" stroke-width="2.5"/>
  <line x1="136" y1="272" x2="164" y2="293" stroke="#f9e2af" stroke-width="2.5"/>
  <line x1="176" y1="297" x2="214" y2="278" stroke="#f9e2af" stroke-width="2.5"/>
  <line x1="226" y1="278" x2="254" y2="297" stroke="#f9e2af" stroke-width="2.5"/>
  <line x1="266" y1="302" x2="304" y2="281" stroke="#f9e2af" stroke-width="2.5"/>
  <line x1="316" y1="281" x2="354" y2="293" stroke="#f9e2af" stroke-width="2.5"/>

  <!-- Background edges -->
  <line x1="80" y1="295" x2="120" y2="315" stroke="#585b70" stroke-width="0.8" opacity="0.2"/>
  <line x1="130" y1="275" x2="180" y2="330" stroke="#585b70" stroke-width="0.8" opacity="0.2"/>
  <line x1="170" y1="300" x2="240" y2="320" stroke="#585b70" stroke-width="0.8" opacity="0.2"/>
  <line x1="220" y1="280" x2="300" y2="335" stroke="#585b70" stroke-width="0.8" opacity="0.2"/>
  <line x1="260" y1="305" x2="350" y2="325" stroke="#585b70" stroke-width="0.8" opacity="0.2"/>
  <line x1="120" y1="320" x2="180" y2="335" stroke="#585b70" stroke-width="0.8" opacity="0.2"/>
  <line x1="240" y1="325" x2="300" y2="340" stroke="#585b70" stroke-width="0.8" opacity="0.2"/>

  <text x="260" y="375" fill="#a6adc8" font-size="11" text-anchor="middle">~20-30 hops, not 1 billion scans</text>

  <!-- Bottom: The scaling insight -->
  <rect x="30" y="395" width="460" height="60" fill="#313244" rx="8"/>
  <text x="260" y="417" fill="#cdd6f4" font-size="12" text-anchor="middle" font-weight="bold">Doubling your data adds ~1 extra hop,</text>
  <text x="260" y="435" fill="#cdd6f4" font-size="12" text-anchor="middle" font-weight="bold">not 2x the work.</text>
  <text x="260" y="448" fill="#a6adc8" font-size="11" text-anchor="middle">This is why graph-based search (HNSW, DiskANN) scales to billions.</text>

  <!-- Bottom: DiskANN's trick -->
  <rect x="30" y="470" width="460" height="80" fill="#313244" rx="8" stroke="#4EC9B0" stroke-width="1.5"/>
  <text x="260" y="493" fill="#4EC9B0" font-size="12" text-anchor="middle" font-weight="bold">DiskANN's trick: navigate the graph using</text>
  <text x="260" y="510" fill="#4EC9B0" font-size="12" text-anchor="middle" font-weight="bold">compressed vectors in RAM (~25 GB)</text>
  <text x="260" y="528" fill="#a6adc8" font-size="11" text-anchor="middle">Fetch full-precision vectors from SSD only for</text>
  <text x="260" y="543" fill="#585b70" font-size="10" text-anchor="middle">the final ~200 candidates to re-rank.</text>
</svg>
