<svg xmlns="http://www.w3.org/2000/svg" viewBox="0 0 800 380" font-family="monospace">
  <rect width="800" height="380" fill="#1e1e2e"/>

  <!-- Title -->
  <text x="400" y="25" fill="#cdd6f4" font-size="15" font-weight="bold" text-anchor="middle">Six Degrees of Separation → Why Graph Search Scales</text>

  <!-- Left: Social network analogy -->
  <text x="200" y="55" fill="#f9e2af" font-size="13" text-anchor="middle" font-weight="bold">7 billion people, ~6 hops apart</text>

  <!-- People nodes in a small-world graph -->
  <circle cx="100" cy="120" r="14" fill="#89b4fa"/>
  <text x="100" y="124" fill="#1e1e2e" font-size="9" text-anchor="middle">You</text>
  <circle cx="170" cy="90" r="10" fill="#585b70"/>
  <circle cx="160" cy="150" r="10" fill="#585b70"/>
  <circle cx="230" cy="110" r="10" fill="#585b70"/>
  <circle cx="240" cy="160" r="10" fill="#585b70"/>
  <circle cx="300" cy="130" r="14" fill="#a6e3a1"/>
  <text x="300" y="134" fill="#1e1e2e" font-size="8" text-anchor="middle">Anyone</text>

  <!-- Edges showing path -->
  <line x1="114" y1="118" x2="160" y2="94" stroke="#f9e2af" stroke-width="2"/>
  <line x1="170" y1="90" x2="225" y2="108" stroke="#f9e2af" stroke-width="2"/>
  <line x1="230" y1="115" x2="240" y2="155" stroke="#f9e2af" stroke-width="2"/>
  <line x1="245" y1="160" x2="286" y2="135" stroke="#f9e2af" stroke-width="2"/>
  <!-- Background edges -->
  <line x1="114" y1="122" x2="150" y2="148" stroke="#585b70" stroke-width="1" opacity="0.3"/>
  <line x1="170" y1="95" x2="230" y2="155" stroke="#585b70" stroke-width="1" opacity="0.3"/>
  <line x1="160" y1="150" x2="230" y2="115" stroke="#585b70" stroke-width="1" opacity="0.3"/>
  <line x1="240" y1="160" x2="300" y2="130" stroke="#585b70" stroke-width="1" opacity="0.3"/>

  <!-- Hop count -->
  <text x="140" y="78" fill="#f9e2af" font-size="9">1</text>
  <text x="200" y="95" fill="#f9e2af" font-size="9">2</text>
  <text x="242" y="140" fill="#f9e2af" font-size="9">3</text>
  <text x="268" y="155" fill="#f9e2af" font-size="9">4</text>

  <text x="200" y="195" fill="#a6adc8" font-size="11" text-anchor="middle">~4-6 hops to reach anyone</text>

  <!-- Divider -->
  <line x1="400" y1="50" x2="400" y2="210" stroke="#585b70" stroke-width="1" stroke-dasharray="4,3"/>

  <!-- Right: Vector graph analogy -->
  <text x="600" y="55" fill="#4EC9B0" font-size="13" text-anchor="middle" font-weight="bold">1 billion vectors, ~20-30 hops apart</text>

  <!-- Vector nodes -->
  <circle cx="480" cy="100" r="8" fill="#4EC9B0" opacity="0.6"/>
  <circle cx="520" cy="85" r="8" fill="#4EC9B0" opacity="0.6"/>
  <circle cx="550" cy="110" r="8" fill="#4EC9B0" opacity="0.6"/>
  <circle cx="590" cy="90" r="8" fill="#4EC9B0" opacity="0.6"/>
  <circle cx="620" cy="120" r="8" fill="#4EC9B0" opacity="0.6"/>
  <circle cx="660" cy="95" r="8" fill="#4EC9B0" opacity="0.6"/>
  <circle cx="700" cy="115" r="8" fill="#4EC9B0" opacity="0.6"/>
  <circle cx="510" cy="140" r="8" fill="#4EC9B0" opacity="0.6"/>
  <circle cx="560" cy="155" r="8" fill="#4EC9B0" opacity="0.6"/>
  <circle cx="610" cy="145" r="8" fill="#4EC9B0" opacity="0.6"/>
  <circle cx="650" cy="160" r="8" fill="#4EC9B0" opacity="0.6"/>
  <circle cx="700" cy="150" r="8" fill="#4EC9B0" opacity="0.6"/>

  <!-- Query and target -->
  <circle cx="480" cy="100" r="10" fill="#89b4fa" stroke="#89b4fa" stroke-width="2"/>
  <text x="462" y="96" fill="#89b4fa" font-size="9">Q</text>
  <circle cx="700" cy="115" r="10" fill="#a6e3a1" stroke="#a6e3a1" stroke-width="2"/>
  <text x="718" y="112" fill="#a6e3a1" font-size="9">✓</text>

  <!-- Path through graph -->
  <line x1="488" y1="98" x2="514" y2="88" stroke="#f9e2af" stroke-width="2.5"/>
  <line x1="526" y1="87" x2="544" y2="108" stroke="#f9e2af" stroke-width="2.5"/>
  <line x1="556" y1="113" x2="584" y2="93" stroke="#f9e2af" stroke-width="2.5"/>
  <line x1="596" y1="93" x2="614" y2="117" stroke="#f9e2af" stroke-width="2.5"/>
  <line x1="626" y1="122" x2="654" y2="98" stroke="#f9e2af" stroke-width="2.5"/>
  <line x1="666" y1="99" x2="694" y2="113" stroke="#f9e2af" stroke-width="2.5"/>

  <!-- Background edges -->
  <line x1="480" y1="105" x2="510" y2="135" stroke="#585b70" stroke-width="0.8" opacity="0.2"/>
  <line x1="520" y1="90" x2="560" y2="150" stroke="#585b70" stroke-width="0.8" opacity="0.2"/>
  <line x1="550" y1="115" x2="610" y2="140" stroke="#585b70" stroke-width="0.8" opacity="0.2"/>
  <line x1="590" y1="95" x2="650" y2="155" stroke="#585b70" stroke-width="0.8" opacity="0.2"/>
  <line x1="620" y1="125" x2="700" y2="145" stroke="#585b70" stroke-width="0.8" opacity="0.2"/>
  <line x1="510" y1="140" x2="560" y2="155" stroke="#585b70" stroke-width="0.8" opacity="0.2"/>
  <line x1="610" y1="145" x2="650" y2="160" stroke="#585b70" stroke-width="0.8" opacity="0.2"/>

  <text x="600" y="195" fill="#a6adc8" font-size="11" text-anchor="middle">~20-30 hops, not 1 billion scans</text>

  <!-- Bottom: The scaling insight -->
  <rect x="50" y="220" width="700" height="60" fill="#313244" rx="8"/>
  <text x="400" y="242" fill="#cdd6f4" font-size="13" text-anchor="middle" font-weight="bold">Doubling your data adds ~1 extra hop, not 2x the work.</text>
  <text x="400" y="262" fill="#a6adc8" font-size="12" text-anchor="middle">This is why graph-based search (HNSW, DiskANN) scales to billions.</text>

  <!-- Bottom: DiskANN's trick -->
  <rect x="50" y="295" width="700" height="70" fill="#313244" rx="8" stroke="#4EC9B0" stroke-width="1.5"/>
  <text x="400" y="318" fill="#4EC9B0" font-size="13" text-anchor="middle" font-weight="bold">DiskANN's trick: navigate the graph using compressed vectors in RAM (~25 GB)</text>
  <text x="400" y="340" fill="#a6adc8" font-size="12" text-anchor="middle">Fetch full-precision vectors from SSD only for the final ~200 candidates to re-rank.</text>
  <text x="400" y="358" fill="#585b70" font-size="11" text-anchor="middle">Graph traversal = cheap (RAM). Re-ranking = precise (SSD). Best of both worlds.</text>
</svg>
