<svg xmlns="http://www.w3.org/2000/svg" viewBox="0 0 800 350" font-family="monospace">
  <rect width="800" height="350" fill="#1e1e2e"/>

  <!-- Title -->
  <text x="400" y="28" fill="#cdd6f4" font-size="16" font-weight="bold" text-anchor="middle">Scalar Quantization: The "Lazy Ruler"</text>

  <!-- Step 1: Original values on a number line -->
  <text x="60" y="60" fill="#a6adc8" font-size="12">Original (FP32): precise measurements</text>
  <line x1="60" y1="80" x2="740" y2="80" stroke="#585b70" stroke-width="2"/>
  <!-- Tick marks -->
  <line x1="60" y1="75" x2="60" y2="85" stroke="#585b70" stroke-width="1"/>
  <text x="60" y="100" fill="#585b70" font-size="10" text-anchor="middle">-1.0</text>
  <line x1="400" y1="75" x2="400" y2="85" stroke="#585b70" stroke-width="1"/>
  <text x="400" y="100" fill="#585b70" font-size="10" text-anchor="middle">0.0</text>
  <line x1="740" y1="75" x2="740" y2="85" stroke="#585b70" stroke-width="1"/>
  <text x="740" y="100" fill="#585b70" font-size="10" text-anchor="middle">+1.0</text>
  <!-- Precise points -->
  <circle cx="195" cy="80" r="5" fill="#f38ba8"/>
  <text x="195" y="72" fill="#f38ba8" font-size="9" text-anchor="middle">-0.602</text>
  <circle cx="310" cy="80" r="5" fill="#89b4fa"/>
  <text x="310" y="72" fill="#89b4fa" font-size="9" text-anchor="middle">-0.265</text>
  <circle cx="530" cy="80" r="5" fill="#a6e3a1"/>
  <text x="530" y="72" fill="#a6e3a1" font-size="9" text-anchor="middle">+0.382</text>
  <circle cx="660" cy="80" r="5" fill="#f9e2af"/>
  <text x="660" y="72" fill="#f9e2af" font-size="9" text-anchor="middle">+0.764</text>

  <!-- Arrow down -->
  <text x="400" y="125" fill="#cdd6f4" font-size="14" text-anchor="middle">↓ Lay down 8 buckets (INT8 = 256, shown simplified) ↓</text>

  <!-- Step 2: Bucketed ruler -->
  <text x="60" y="155" fill="#a6adc8" font-size="12">Quantized (INT8): snap to nearest bucket</text>
  <!-- Bucket boundaries -->
  <rect x="60" y="170" width="85" height="30" fill="#313244" stroke="#585b70" stroke-width="1" rx="2"/>
  <text x="102" y="190" fill="#585b70" font-size="10" text-anchor="middle">0</text>
  <rect x="145" y="170" width="85" height="30" fill="#45475a" stroke="#585b70" stroke-width="1" rx="2"/>
  <text x="187" y="190" fill="#585b70" font-size="10" text-anchor="middle">1</text>
  <rect x="230" y="170" width="85" height="30" fill="#313244" stroke="#585b70" stroke-width="1" rx="2"/>
  <text x="272" y="190" fill="#585b70" font-size="10" text-anchor="middle">2</text>
  <rect x="315" y="170" width="85" height="30" fill="#45475a" stroke="#585b70" stroke-width="1" rx="2"/>
  <text x="357" y="190" fill="#585b70" font-size="10" text-anchor="middle">3</text>
  <rect x="400" y="170" width="85" height="30" fill="#313244" stroke="#585b70" stroke-width="1" rx="2"/>
  <text x="442" y="190" fill="#585b70" font-size="10" text-anchor="middle">4</text>
  <rect x="485" y="170" width="85" height="30" fill="#45475a" stroke="#585b70" stroke-width="1" rx="2"/>
  <text x="527" y="190" fill="#585b70" font-size="10" text-anchor="middle">5</text>
  <rect x="570" y="170" width="85" height="30" fill="#313244" stroke="#585b70" stroke-width="1" rx="2"/>
  <text x="612" y="190" fill="#585b70" font-size="10" text-anchor="middle">6</text>
  <rect x="655" y="170" width="85" height="30" fill="#45475a" stroke="#585b70" stroke-width="1" rx="2"/>
  <text x="697" y="190" fill="#585b70" font-size="10" text-anchor="middle">7</text>

  <!-- Snapped points -->
  <circle cx="187" cy="170" r="5" fill="#f38ba8"/>
  <line x1="195" y1="80" x2="187" y2="165" stroke="#f38ba8" stroke-width="1" stroke-dasharray="3,3" opacity="0.5"/>
  <circle cx="272" cy="170" r="5" fill="#89b4fa"/>
  <line x1="310" y1="80" x2="272" y2="165" stroke="#89b4fa" stroke-width="1" stroke-dasharray="3,3" opacity="0.5"/>
  <circle cx="527" cy="170" r="5" fill="#a6e3a1"/>
  <line x1="530" y1="80" x2="527" y2="165" stroke="#a6e3a1" stroke-width="1" stroke-dasharray="3,3" opacity="0.5"/>
  <circle cx="697" cy="170" r="5" fill="#f9e2af"/>
  <line x1="660" y1="80" x2="697" y2="165" stroke="#f9e2af" stroke-width="1" stroke-dasharray="3,3" opacity="0.5"/>

  <!-- Result -->
  <text x="400" y="230" fill="#cdd6f4" font-size="13" text-anchor="middle">[-0.602, -0.265, +0.382, +0.764]  →  [1, 2, 5, 7]</text>
  <text x="400" y="250" fill="#a6adc8" font-size="12" text-anchor="middle">4 bytes per value → 1 byte per value = 4x compression</text>

  <!-- Bottom insight -->
  <rect x="100" y="275" width="600" height="55" fill="#313244" rx="6"/>
  <text x="400" y="295" fill="#a6e3a1" font-size="13" text-anchor="middle" font-weight="bold">Smart rounding. High-res photo → slightly lower-res version.</text>
  <text x="400" y="315" fill="#a6adc8" font-size="12" text-anchor="middle">Computers compare integers much faster than long decimals.</text>
</svg>
