<svg xmlns="http://www.w3.org/2000/svg" viewBox="0 0 500 400" font-family="monospace">
  <rect width="500" height="400" fill="#1e1e2e"/>

  <!-- Title -->
  <text x="250" y="28" fill="#cdd6f4" font-size="15" font-weight="bold" text-anchor="middle">Scalar Quantization: The "Lazy Ruler"</text>

  <!-- Original values label -->
  <text x="30" y="58" fill="#a6adc8" font-size="11">Original (FP32): precise measurements</text>

  <!-- Number line -->
  <line x1="30" y1="80" x2="470" y2="80" stroke="#585b70" stroke-width="2"/>
  <line x1="30" y1="75" x2="30" y2="85" stroke="#585b70" stroke-width="1"/>
  <text x="30" y="100" fill="#585b70" font-size="10" text-anchor="middle">-1.0</text>
  <line x1="250" y1="75" x2="250" y2="85" stroke="#585b70" stroke-width="1"/>
  <text x="250" y="100" fill="#585b70" font-size="10" text-anchor="middle">0.0</text>
  <line x1="470" y1="75" x2="470" y2="85" stroke="#585b70" stroke-width="1"/>
  <text x="470" y="100" fill="#585b70" font-size="10" text-anchor="middle">+1.0</text>

  <!-- Precise points: map [-1,1] to [30,470] => val*220+250 -->
  <circle cx="117" cy="80" r="5" fill="#f38ba8"/>
  <text x="117" y="70" fill="#f38ba8" font-size="9" text-anchor="middle">-0.602</text>
  <circle cx="192" cy="80" r="5" fill="#89b4fa"/>
  <text x="192" y="70" fill="#89b4fa" font-size="9" text-anchor="middle">-0.265</text>
  <circle cx="334" cy="80" r="5" fill="#a6e3a1"/>
  <text x="334" y="70" fill="#a6e3a1" font-size="9" text-anchor="middle">+0.382</text>
  <circle cx="418" cy="80" r="5" fill="#f9e2af"/>
  <text x="418" y="70" fill="#f9e2af" font-size="9" text-anchor="middle">+0.764</text>

  <!-- Arrow down -->
  <text x="250" y="135" fill="#cdd6f4" font-size="13" text-anchor="middle">↓ Lay down 8 buckets (INT8 = 256, simplified) ↓</text>

  <!-- Quantized label -->
  <text x="30" y="165" fill="#a6adc8" font-size="11">Quantized (INT8): snap to nearest bucket</text>

  <!-- Buckets: 8 buckets across 30..470 => each 55px wide -->
  <rect x="30" y="180" width="55" height="30" fill="#313244" stroke="#585b70" stroke-width="1" rx="2"/>
  <text x="57" y="200" fill="#585b70" font-size="10" text-anchor="middle">0</text>
  <rect x="85" y="180" width="55" height="30" fill="#45475a" stroke="#585b70" stroke-width="1" rx="2"/>
  <text x="112" y="200" fill="#585b70" font-size="10" text-anchor="middle">1</text>
  <rect x="140" y="180" width="55" height="30" fill="#313244" stroke="#585b70" stroke-width="1" rx="2"/>
  <text x="167" y="200" fill="#585b70" font-size="10" text-anchor="middle">2</text>
  <rect x="195" y="180" width="55" height="30" fill="#45475a" stroke="#585b70" stroke-width="1" rx="2"/>
  <text x="222" y="200" fill="#585b70" font-size="10" text-anchor="middle">3</text>
  <rect x="250" y="180" width="55" height="30" fill="#313244" stroke="#585b70" stroke-width="1" rx="2"/>
  <text x="277" y="200" fill="#585b70" font-size="10" text-anchor="middle">4</text>
  <rect x="305" y="180" width="55" height="30" fill="#45475a" stroke="#585b70" stroke-width="1" rx="2"/>
  <text x="332" y="200" fill="#585b70" font-size="10" text-anchor="middle">5</text>
  <rect x="360" y="180" width="55" height="30" fill="#313244" stroke="#585b70" stroke-width="1" rx="2"/>
  <text x="387" y="200" fill="#585b70" font-size="10" text-anchor="middle">6</text>
  <rect x="415" y="180" width="55" height="30" fill="#45475a" stroke="#585b70" stroke-width="1" rx="2"/>
  <text x="442" y="200" fill="#585b70" font-size="10" text-anchor="middle">7</text>

  <!-- Snapped points on bucket tops + dashed lines from originals -->
  <!-- -0.602 snaps to bucket 1 center=112 -->
  <circle cx="112" cy="180" r="5" fill="#f38ba8"/>
  <line x1="117" y1="85" x2="112" y2="175" stroke="#f38ba8" stroke-width="1" stroke-dasharray="3,3" opacity="0.5"/>
  <!-- -0.265 snaps to bucket 2 center=167 -->
  <circle cx="167" cy="180" r="5" fill="#89b4fa"/>
  <line x1="192" y1="85" x2="167" y2="175" stroke="#89b4fa" stroke-width="1" stroke-dasharray="3,3" opacity="0.5"/>
  <!-- +0.382 snaps to bucket 5 center=332 -->
  <circle cx="332" cy="180" r="5" fill="#a6e3a1"/>
  <line x1="334" y1="85" x2="332" y2="175" stroke="#a6e3a1" stroke-width="1" stroke-dasharray="3,3" opacity="0.5"/>
  <!-- +0.764 snaps to bucket 7 center=442 -->
  <circle cx="442" cy="180" r="5" fill="#f9e2af"/>
  <line x1="418" y1="85" x2="442" y2="175" stroke="#f9e2af" stroke-width="1" stroke-dasharray="3,3" opacity="0.5"/>

  <!-- Result -->
  <text x="250" y="255" fill="#cdd6f4" font-size="13" text-anchor="middle">[-0.602, -0.265, +0.382, +0.764]</text>
  <text x="250" y="278" fill="#cdd6f4" font-size="15" text-anchor="middle">→  [1, 2, 5, 7]</text>
  <text x="250" y="305" fill="#a6adc8" font-size="12" text-anchor="middle">4 bytes per value → 1 byte per value = 4x compression</text>

  <!-- Bottom insight box -->
  <rect x="30" y="330" width="440" height="55" fill="#313244" rx="6"/>
  <text x="250" y="353" fill="#a6e3a1" font-size="13" text-anchor="middle" font-weight="bold">Smart rounding. High-res photo → slightly lower-res.</text>
  <text x="250" y="373" fill="#a6adc8" font-size="11" text-anchor="middle">Computers compare integers much faster than long decimals.</text>
</svg>
